# xmcd
#
# Track frame offsets:
#	150
#	22178
#	35702
#	62625
#	84563
#	116386
#	145065
#	161588
#	182549
#	205447
#	220497
#	243221
#	259706
#
# Disc length: 3620 seconds
#
# Revision: 0
# Processed by: cddbd v1.5.1PL0 Copyright (c) Steve Scherf et al.
# Submitted via: dBpowerAMP V4.0
#
DISCID=b90e220d
DTITLE=Flavio Pirini - Romancinismo
DYEAR=1900
DGENRE=
TTITLE0=Ti telefono
TTITLE1=Te vist cus'è?!
TTITLE2=Resta
TTITLE3=Lasciami dormire
TTITLE4=Telegramma
TTITLE5=A fior di labbra
TTITLE6=Controfigura
TTITLE7=Omaggio al teatro
TTITLE8=Parlo con me
TTITLE9=Non ti cago
TTITLE10=Sulla mia pelle
TTITLE11=Piove sempre sul bagnato
TTITLE12=Coda
EXTD=
EXTT0=
EXTT1=
EXTT2=
EXTT3=
EXTT4=
EXTT5=
EXTT6=
EXTT7=
EXTT8=
EXTT9=
EXTT10=
EXTT11=
EXTT12=
PLAYORDER=
